<?xml version="1.0" encoding="us-ascii" standalone="no"?><svg xmlns="http://www.w3.org/2000/svg" xmlns:xlink="http://www.w3.org/1999/xlink" contentStyleType="text/css" height="623px" preserveAspectRatio="none" style="width:699px;height:623px;background:#FFFFFF;" version="1.1" viewBox="0 0 699 623" width="699px" zoomAndPan="magnify"><defs/><g><!--class OPC_client.js--><g id="elem_OPC_client.js"><rect codeLine="6" fill="#FFFFFF" height="402.5313" id="OPC_client.js" rx="2.5" ry="2.5" style="stroke:#000000;stroke-width:1.0;" width="368" x="12" y="214"/><ellipse cx="145.25" cy="228" fill="#FFFFFF" rx="9" ry="9" style="stroke:#000000;stroke-width:1.0;"/><path d="M147.5938,223.6719 C146.6563,223.2344 146.0625,223.0938 145.1875,223.0938 C142.5625,223.0938 140.5625,225.1719 140.5625,227.8906 L140.5625,229.0156 C140.5625,231.5938 142.6719,233.4844 145.5625,233.4844 C146.7813,233.4844 147.9375,233.1875 148.6875,232.6406 C149.2656,232.2344 149.5938,231.7813 149.5938,231.3906 C149.5938,230.9375 149.2031,230.5469 148.7344,230.5469 C148.5156,230.5469 148.3125,230.625 148.125,230.8125 C147.6719,231.2969 147.6719,231.2969 147.4844,231.3906 C147.0625,231.6563 146.375,231.7813 145.6094,231.7813 C143.5625,231.7813 142.2656,230.6875 142.2656,228.9844 L142.2656,227.8906 C142.2656,226.1094 143.5156,224.7969 145.25,224.7969 C145.8281,224.7969 146.4375,224.9531 146.9063,225.2031 C147.3906,225.4844 147.5625,225.7031 147.6563,226.1094 C147.7188,226.5156 147.75,226.6406 147.8906,226.7656 C148.0313,226.9063 148.2656,227.0156 148.4844,227.0156 C148.75,227.0156 149.0156,226.875 149.1875,226.6563 C149.2969,226.5 149.3281,226.3125 149.3281,225.8906 L149.3281,224.4688 C149.3281,224.0313 149.3125,223.9063 149.2188,223.75 C149.0625,223.4844 148.7813,223.3438 148.4844,223.3438 C148.1875,223.3438 147.9844,223.4375 147.7656,223.75 L147.5938,223.6719 Z " fill="#000000"/><text fill="#000000" font-family="Verdana" font-size="14" lengthAdjust="spacing" textLength="94" x="162.75" y="232.8467">OPC_client.js</text><line style="stroke:#000000;stroke-width:1.0;" x1="13" x2="379" y1="242" y2="242"/><text fill="#000000" font-family="Verdana" font-size="14" lengthAdjust="spacing" textLength="58" x="18" y="258.9951">-session</text><text fill="#000000" font-family="Verdana" font-size="14" lengthAdjust="spacing" textLength="47" x="18" y="275.292">-client</text><text fill="#000000" font-family="Verdana" font-size="14" lengthAdjust="spacing" textLength="95" x="18" y="291.5889">-subscription</text><text fill="#000000" font-family="Verdana" font-size="14" lengthAdjust="spacing" textLength="61" x="18" y="307.8857">-batchId</text><text fill="#000000" font-family="Verdana" font-size="14" lengthAdjust="spacing" textLength="128" x="18" y="324.1826">-batchIdFromOPC</text><text fill="#000000" font-family="Verdana" font-size="14" lengthAdjust="spacing" textLength="150" x="18" y="340.4795">-PackMLCmdOptions</text><text fill="#000000" font-family="Verdana" font-size="14" lengthAdjust="spacing" textLength="157" x="18" y="356.7764">-PackMLStateOptions</text><text fill="#000000" font-family="Verdana" font-size="14" lengthAdjust="spacing" textLength="70" x="18" y="373.0732">-variables</text><text fill="#000000" font-family="Verdana" font-size="14" lengthAdjust="spacing" textLength="70" x="18" y="389.3701">-products</text><text fill="#000000" font-family="Verdana" font-size="14" lengthAdjust="spacing" textLength="94" x="18" y="405.667">-speedLimits</text><text fill="#000000" font-family="Verdana" font-size="14" lengthAdjust="spacing" textLength="118" x="18" y="421.9639">-opcEndpointUrl</text><line style="stroke:#000000;stroke-width:1.0;" x1="13" x2="379" y1="429.2656" y2="429.2656"/><text fill="#000000" font-family="Verdana" font-size="14" lengthAdjust="spacing" textLength="184" x="18" y="446.2607">-findVariable(beer_name)</text><text fill="#000000" font-family="Verdana" font-size="14" lengthAdjust="spacing" textLength="165" x="18" y="462.5576">-PackMLStateHandler()</text><text fill="#000000" font-family="Verdana" font-size="14" lengthAdjust="spacing" textLength="101" x="18" y="478.8545">+getBatchId()</text><text fill="#000000" font-family="Verdana" font-size="14" lengthAdjust="spacing" textLength="80" x="18" y="495.1514">+connect()</text><text fill="#000000" font-family="Verdana" font-size="14" lengthAdjust="spacing" textLength="157" x="18" y="511.4482">+read(variable_name)</text><text fill="#000000" font-family="Verdana" font-size="14" lengthAdjust="spacing" textLength="281" x="18" y="527.7451">+write(variable_name, value, datatype)</text><text fill="#000000" font-family="Verdana" font-size="14" lengthAdjust="spacing" textLength="80" x="18" y="544.042">+connect()</text><text fill="#000000" font-family="Verdana" font-size="14" lengthAdjust="spacing" textLength="115" x="18" y="560.3389">+maintenance()</text><text fill="#000000" font-family="Verdana" font-size="14" lengthAdjust="spacing" textLength="356" x="18" y="576.6357">+brew(beer_type, beer_amount, machine_speed)</text><text fill="#000000" font-family="Verdana" font-size="14" lengthAdjust="spacing" textLength="100" x="18" y="592.9326">+disconnect()</text><text fill="#000000" font-family="Verdana" font-size="14" lengthAdjust="spacing" textLength="261" x="18" y="609.2295">+subscribe(variable_name, callback)</text></g><!--class db.js--><g id="elem_db.js"><rect codeLine="31" fill="#FFFFFF" height="109.1875" id="db.js" rx="2.5" ry="2.5" style="stroke:#000000;stroke-width:1.0;" width="165" x="340.5" y="28.5"/><ellipse cx="401.75" cy="42.5" fill="#FFFFFF" rx="9" ry="9" style="stroke:#000000;stroke-width:1.0;"/><path d="M404.0938,38.1719 C403.1563,37.7344 402.5625,37.5938 401.6875,37.5938 C399.0625,37.5938 397.0625,39.6719 397.0625,42.3906 L397.0625,43.5156 C397.0625,46.0938 399.1719,47.9844 402.0625,47.9844 C403.2813,47.9844 404.4375,47.6875 405.1875,47.1406 C405.7656,46.7344 406.0938,46.2813 406.0938,45.8906 C406.0938,45.4375 405.7031,45.0469 405.2344,45.0469 C405.0156,45.0469 404.8125,45.125 404.625,45.3125 C404.1719,45.7969 404.1719,45.7969 403.9844,45.8906 C403.5625,46.1563 402.875,46.2813 402.1094,46.2813 C400.0625,46.2813 398.7656,45.1875 398.7656,43.4844 L398.7656,42.3906 C398.7656,40.6094 400.0156,39.2969 401.75,39.2969 C402.3281,39.2969 402.9375,39.4531 403.4063,39.7031 C403.8906,39.9844 404.0625,40.2031 404.1563,40.6094 C404.2188,41.0156 404.25,41.1406 404.3906,41.2656 C404.5313,41.4063 404.7656,41.5156 404.9844,41.5156 C405.25,41.5156 405.5156,41.375 405.6875,41.1563 C405.7969,41 405.8281,40.8125 405.8281,40.3906 L405.8281,38.9688 C405.8281,38.5313 405.8125,38.4063 405.7188,38.25 C405.5625,37.9844 405.2813,37.8438 404.9844,37.8438 C404.6875,37.8438 404.4844,37.9375 404.2656,38.25 L404.0938,38.1719 Z " fill="#000000"/><text fill="#000000" font-family="Verdana" font-size="14" lengthAdjust="spacing" textLength="35" x="419.25" y="47.3467">db.js</text><line style="stroke:#000000;stroke-width:1.0;" x1="341.5" x2="504.5" y1="56.5" y2="56.5"/><text fill="#000000" font-family="Verdana" font-size="14" lengthAdjust="spacing" textLength="38" x="346.5" y="73.4951">-pool</text><line style="stroke:#000000;stroke-width:1.0;" x1="341.5" x2="504.5" y1="80.7969" y2="80.7969"/><text fill="#000000" font-family="Verdana" font-size="14" lengthAdjust="spacing" textLength="153" x="346.5" y="97.792">+query(text, params)</text><text fill="#000000" font-family="Verdana" font-size="14" lengthAdjust="spacing" textLength="135" x="346.5" y="114.0889">+connect(options)</text><text fill="#000000" font-family="Verdana" font-size="14" lengthAdjust="spacing" textLength="100" x="346.5" y="130.3857">+disconnect()</text></g><!--class index.js--><g id="elem_index.js"><rect codeLine="38" fill="#FFFFFF" height="141.7813" id="index.js" rx="2.5" ry="2.5" style="stroke:#000000;stroke-width:1.0;" width="218" x="87" y="12"/><ellipse cx="164.75" cy="26" fill="#FFFFFF" rx="9" ry="9" style="stroke:#000000;stroke-width:1.0;"/><path d="M167.0938,21.6719 C166.1563,21.2344 165.5625,21.0938 164.6875,21.0938 C162.0625,21.0938 160.0625,23.1719 160.0625,25.8906 L160.0625,27.0156 C160.0625,29.5938 162.1719,31.4844 165.0625,31.4844 C166.2813,31.4844 167.4375,31.1875 168.1875,30.6406 C168.7656,30.2344 169.0938,29.7813 169.0938,29.3906 C169.0938,28.9375 168.7031,28.5469 168.2344,28.5469 C168.0156,28.5469 167.8125,28.625 167.625,28.8125 C167.1719,29.2969 167.1719,29.2969 166.9844,29.3906 C166.5625,29.6563 165.875,29.7813 165.1094,29.7813 C163.0625,29.7813 161.7656,28.6875 161.7656,26.9844 L161.7656,25.8906 C161.7656,24.1094 163.0156,22.7969 164.75,22.7969 C165.3281,22.7969 165.9375,22.9531 166.4063,23.2031 C166.8906,23.4844 167.0625,23.7031 167.1563,24.1094 C167.2188,24.5156 167.25,24.6406 167.3906,24.7656 C167.5313,24.9063 167.7656,25.0156 167.9844,25.0156 C168.25,25.0156 168.5156,24.875 168.6875,24.6563 C168.7969,24.5 168.8281,24.3125 168.8281,23.8906 L168.8281,22.4688 C168.8281,22.0313 168.8125,21.9063 168.7188,21.75 C168.5625,21.4844 168.2813,21.3438 167.9844,21.3438 C167.6875,21.3438 167.4844,21.4375 167.2656,21.75 L167.0938,21.6719 Z " fill="#000000"/><text fill="#000000" font-family="Verdana" font-size="14" lengthAdjust="spacing" textLength="55" x="182.25" y="30.8467">index.js</text><line style="stroke:#000000;stroke-width:1.0;" x1="88" x2="304" y1="40" y2="40"/><text fill="#000000" font-family="Verdana" font-size="14" lengthAdjust="spacing" textLength="47" x="93" y="56.9951">-beers</text><text fill="#000000" font-family="Verdana" font-size="14" lengthAdjust="spacing" textLength="39" x="93" y="73.292">+app</text><line style="stroke:#000000;stroke-width:1.0;" x1="88" x2="304" y1="80.5938" y2="80.5938"/><text fill="#000000" font-family="Verdana" font-size="14" lengthAdjust="spacing" textLength="206" x="93" y="97.5889">+POST ('/api/pass-to-queue')</text><text fill="#000000" font-family="Verdana" font-size="14" lengthAdjust="spacing" textLength="132" x="93" y="113.8857">+GET ('/api/state')</text><text fill="#000000" font-family="Verdana" font-size="14" lengthAdjust="spacing" textLength="136" x="93" y="130.1826">+GET ('/api/batch')</text><text fill="#000000" font-family="Verdana" font-size="14" lengthAdjust="spacing" textLength="163" x="93" y="146.4795">+GET ('/api/inventory')</text></g><!--class main.jsx--><g id="elem_main.jsx"><rect codeLine="47" fill="#FFFFFF" height="60.2969" id="main.jsx" rx="2.5" ry="2.5" style="stroke:#000000;stroke-width:1.0;" width="87" x="540.5" y="53"/><ellipse cx="553.5" cy="67" fill="#FFFFFF" rx="9" ry="9" style="stroke:#000000;stroke-width:1.0;"/><path d="M555.8438,62.6719 C554.9063,62.2344 554.3125,62.0938 553.4375,62.0938 C550.8125,62.0938 548.8125,64.1719 548.8125,66.8906 L548.8125,68.0156 C548.8125,70.5938 550.9219,72.4844 553.8125,72.4844 C555.0313,72.4844 556.1875,72.1875 556.9375,71.6406 C557.5156,71.2344 557.8438,70.7813 557.8438,70.3906 C557.8438,69.9375 557.4531,69.5469 556.9844,69.5469 C556.7656,69.5469 556.5625,69.625 556.375,69.8125 C555.9219,70.2969 555.9219,70.2969 555.7344,70.3906 C555.3125,70.6563 554.625,70.7813 553.8594,70.7813 C551.8125,70.7813 550.5156,69.6875 550.5156,67.9844 L550.5156,66.8906 C550.5156,65.1094 551.7656,63.7969 553.5,63.7969 C554.0781,63.7969 554.6875,63.9531 555.1563,64.2031 C555.6406,64.4844 555.8125,64.7031 555.9063,65.1094 C555.9688,65.5156 556,65.6406 556.1406,65.7656 C556.2813,65.9063 556.5156,66.0156 556.7344,66.0156 C557,66.0156 557.2656,65.875 557.4375,65.6563 C557.5469,65.5 557.5781,65.3125 557.5781,64.8906 L557.5781,63.4688 C557.5781,63.0313 557.5625,62.9063 557.4688,62.75 C557.3125,62.4844 557.0313,62.3438 556.7344,62.3438 C556.4375,62.3438 556.2344,62.4375 556.0156,62.75 L555.8438,62.6719 Z " fill="#000000"/><text fill="#000000" font-family="Verdana" font-size="14" lengthAdjust="spacing" textLength="59" x="565.5" y="71.8467">main.jsx</text><line style="stroke:#000000;stroke-width:1.0;" x1="541.5" x2="626.5" y1="81" y2="81"/><text fill="#000000" font-family="Verdana" font-size="14" lengthAdjust="spacing" textLength="51" x="546.5" y="97.9951">-router</text><line style="stroke:#000000;stroke-width:1.0;" x1="541.5" x2="626.5" y1="105.2969" y2="105.2969"/></g><!--class App.jsx--><g id="elem_App.jsx"><rect codeLine="51" fill="#FFFFFF" height="60.2969" id="App.jsx" rx="2.5" ry="2.5" style="stroke:#000000;stroke-width:1.0;" width="82" x="481" y="385.5"/><ellipse cx="494" cy="399.5" fill="#FFFFFF" rx="9" ry="9" style="stroke:#000000;stroke-width:1.0;"/><path d="M496.3438,395.1719 C495.4063,394.7344 494.8125,394.5938 493.9375,394.5938 C491.3125,394.5938 489.3125,396.6719 489.3125,399.3906 L489.3125,400.5156 C489.3125,403.0938 491.4219,404.9844 494.3125,404.9844 C495.5313,404.9844 496.6875,404.6875 497.4375,404.1406 C498.0156,403.7344 498.3438,403.2813 498.3438,402.8906 C498.3438,402.4375 497.9531,402.0469 497.4844,402.0469 C497.2656,402.0469 497.0625,402.125 496.875,402.3125 C496.4219,402.7969 496.4219,402.7969 496.2344,402.8906 C495.8125,403.1563 495.125,403.2813 494.3594,403.2813 C492.3125,403.2813 491.0156,402.1875 491.0156,400.4844 L491.0156,399.3906 C491.0156,397.6094 492.2656,396.2969 494,396.2969 C494.5781,396.2969 495.1875,396.4531 495.6563,396.7031 C496.1406,396.9844 496.3125,397.2031 496.4063,397.6094 C496.4688,398.0156 496.5,398.1406 496.6406,398.2656 C496.7813,398.4063 497.0156,398.5156 497.2344,398.5156 C497.5,398.5156 497.7656,398.375 497.9375,398.1563 C498.0469,398 498.0781,397.8125 498.0781,397.3906 L498.0781,395.9688 C498.0781,395.5313 498.0625,395.4063 497.9688,395.25 C497.8125,394.9844 497.5313,394.8438 497.2344,394.8438 C496.9375,394.8438 496.7344,394.9375 496.5156,395.25 L496.3438,395.1719 Z " fill="#000000"/><text fill="#000000" font-family="Verdana" font-size="14" lengthAdjust="spacing" textLength="54" x="506" y="404.3467">App.jsx</text><line style="stroke:#000000;stroke-width:1.0;" x1="482" x2="562" y1="413.5" y2="413.5"/><line style="stroke:#000000;stroke-width:1.0;" x1="482" x2="562" y1="421.5" y2="421.5"/><text fill="#000000" font-family="Verdana" font-size="14" lengthAdjust="spacing" textLength="51" x="487" y="438.4951">+App()</text></g><!--class Temp.jsx--><g id="elem_Temp.jsx"><rect codeLine="55" fill="#FFFFFF" height="60.2969" id="Temp.jsx" rx="2.5" ry="2.5" style="stroke:#000000;stroke-width:1.0;" width="94" x="598" y="385.5"/><ellipse cx="611" cy="399.5" fill="#FFFFFF" rx="9" ry="9" style="stroke:#000000;stroke-width:1.0;"/><path d="M613.3438,395.1719 C612.4063,394.7344 611.8125,394.5938 610.9375,394.5938 C608.3125,394.5938 606.3125,396.6719 606.3125,399.3906 L606.3125,400.5156 C606.3125,403.0938 608.4219,404.9844 611.3125,404.9844 C612.5313,404.9844 613.6875,404.6875 614.4375,404.1406 C615.0156,403.7344 615.3438,403.2813 615.3438,402.8906 C615.3438,402.4375 614.9531,402.0469 614.4844,402.0469 C614.2656,402.0469 614.0625,402.125 613.875,402.3125 C613.4219,402.7969 613.4219,402.7969 613.2344,402.8906 C612.8125,403.1563 612.125,403.2813 611.3594,403.2813 C609.3125,403.2813 608.0156,402.1875 608.0156,400.4844 L608.0156,399.3906 C608.0156,397.6094 609.2656,396.2969 611,396.2969 C611.5781,396.2969 612.1875,396.4531 612.6563,396.7031 C613.1406,396.9844 613.3125,397.2031 613.4063,397.6094 C613.4688,398.0156 613.5,398.1406 613.6406,398.2656 C613.7813,398.4063 614.0156,398.5156 614.2344,398.5156 C614.5,398.5156 614.7656,398.375 614.9375,398.1563 C615.0469,398 615.0781,397.8125 615.0781,397.3906 L615.0781,395.9688 C615.0781,395.5313 615.0625,395.4063 614.9688,395.25 C614.8125,394.9844 614.5313,394.8438 614.2344,394.8438 C613.9375,394.8438 613.7344,394.9375 613.5156,395.25 L613.3438,395.1719 Z " fill="#000000"/><text fill="#000000" font-family="Verdana" font-size="14" lengthAdjust="spacing" textLength="66" x="623" y="404.3467">Temp.jsx</text><line style="stroke:#000000;stroke-width:1.0;" x1="599" x2="691" y1="413.5" y2="413.5"/><line style="stroke:#000000;stroke-width:1.0;" x1="599" x2="691" y1="421.5" y2="421.5"/><text fill="#000000" font-family="Verdana" font-size="14" lengthAdjust="spacing" textLength="63" x="604" y="438.4951">+Temp()</text></g><!--link main.jsx to Temp.jsx--><g id="link_main.jsx_Temp.jsx"><path codeLine="59" d="M589.36,113.04 C600.902,175.574 627.997,322.378 639.587,385.171 " fill="none" id="main.jsx-Temp.jsx" style="stroke:#000000;stroke-width:1.0;"/></g><!--link main.jsx to App.jsx--><g id="link_main.jsx_App.jsx"><path codeLine="60" d="M578.552,113.04 C566.821,175.574 539.282,322.378 527.502,385.171 " fill="none" id="main.jsx-App.jsx" style="stroke:#000000;stroke-width:1.0;"/></g><!--link index.js to OPC_client.js--><g id="link_index.js_OPC_client.js"><path codeLine="62" d="M196,154.091 C196,172.186 196,192.591 196,213.815 " fill="none" id="index.js-OPC_client.js" style="stroke:#000000;stroke-width:1.0;"/></g><!--SRC=[PLFRRjim37ttLsXFSP5uxIzqHRSLw900wVOQK1AtQDMj4jqcA_hlqoLnxVh9vE7HuH4fVw8z6cHUWx9DV5JMGm33X8OOhuc2uZtXdN1sg_uXksgQYCGYPXQvmAops3I5pTQRcvtG2Yrz_XlPQyEwH8nHEPl3MYbWpwC8ojEfme74_awEmg_1cQIMaGs8nn_tDqQk2p- -Ori2mX7w3441rrWI7vpi1PKuUaHvhuogwMzbvQyJj-M8OMV1u4KkEIzkhVHEMVePz8TMty5AZQ5Dp2NxW_IbUgrv6f15GJK92B8zspchBzbBK8HJV9LSwpvz9AGMHuzpCPCMGsZ12gm03_XIVUS3ArP2CAwtj4fiiLSMT-NEXIvLdEYTfizdJWHepTDrBvgtyqOb7pRfdTFv-5EFuTWI7bApybJYnBAh-vXt7ZJJzF4mo6RpCPF1-_pPhBSFh5rSWbUNFj4xSbrgsUEYI7wx7QenxsI6bWSqGvLzJc_FXUDYP2GFDlauL2F1fNSUtglNtf-BovoCh_20PbJCMQqEYbqtS2RWIRHfXY4aSFBR_0S0]--></g></svg>