<?xml version="1.0" encoding="us-ascii" standalone="no"?><svg xmlns="http://www.w3.org/2000/svg" xmlns:xlink="http://www.w3.org/1999/xlink" contentStyleType="text/css" height="545px" preserveAspectRatio="none" style="width:836px;height:545px;background:#1B1B1B;" version="1.1" viewBox="0 0 836 545" width="836px" zoomAndPan="magnify"><defs/><g><rect fill="#1B1B1B" height="545" style="stroke:none;stroke-width:1.0;" width="836" x="0" y="0"/><!--class OPC_client.js--><g id="elem_OPC_client.js"><rect codeLine="5" fill="#313139" height="406.5313" id="OPC_client.js" rx="2.5" ry="2.5" style="stroke:#E7E7E7;stroke-width:0.5;" width="368" x="7" y="7"/><ellipse cx="139.75" cy="23" fill="#2E5233" rx="11" ry="11" style="stroke:#E7E7E7;stroke-width:1.0;"/><path d="M142.0938,18.6719 C141.1563,18.2344 140.5625,18.0938 139.6875,18.0938 C137.0625,18.0938 135.0625,20.1719 135.0625,22.8906 L135.0625,24.0156 C135.0625,26.5938 137.1719,28.4844 140.0625,28.4844 C141.2813,28.4844 142.4375,28.1875 143.1875,27.6406 C143.7656,27.2344 144.0938,26.7813 144.0938,26.3906 C144.0938,25.9375 143.7031,25.5469 143.2344,25.5469 C143.0156,25.5469 142.8125,25.625 142.625,25.8125 C142.1719,26.2969 142.1719,26.2969 141.9844,26.3906 C141.5625,26.6563 140.875,26.7813 140.1094,26.7813 C138.0625,26.7813 136.7656,25.6875 136.7656,23.9844 L136.7656,22.8906 C136.7656,21.1094 138.0156,19.7969 139.75,19.7969 C140.3281,19.7969 140.9375,19.9531 141.4063,20.2031 C141.8906,20.4844 142.0625,20.7031 142.1563,21.1094 C142.2188,21.5156 142.25,21.6406 142.3906,21.7656 C142.5313,21.9063 142.7656,22.0156 142.9844,22.0156 C143.25,22.0156 143.5156,21.875 143.6875,21.6563 C143.7969,21.5 143.8281,21.3125 143.8281,20.8906 L143.8281,19.4688 C143.8281,19.0313 143.8125,18.9063 143.7188,18.75 C143.5625,18.4844 143.2813,18.3438 142.9844,18.3438 C142.6875,18.3438 142.4844,18.4375 142.2656,18.75 L142.0938,18.6719 Z " fill="#FFFFFF"/><text fill="#FFFFFF" font-family="sans-serif" font-size="14" lengthAdjust="spacing" textLength="94" x="160.25" y="27.8467">OPC_client.js</text><line style="stroke:#E7E7E7;stroke-width:0.5;" x1="8" x2="374" y1="39" y2="39"/><text fill="#FFFFFF" font-family="sans-serif" font-size="14" lengthAdjust="spacing" textLength="58" x="13" y="55.9951">-session</text><text fill="#FFFFFF" font-family="sans-serif" font-size="14" lengthAdjust="spacing" textLength="47" x="13" y="72.292">-client</text><text fill="#FFFFFF" font-family="sans-serif" font-size="14" lengthAdjust="spacing" textLength="95" x="13" y="88.5889">-subscription</text><text fill="#FFFFFF" font-family="sans-serif" font-size="14" lengthAdjust="spacing" textLength="61" x="13" y="104.8857">-batchId</text><text fill="#FFFFFF" font-family="sans-serif" font-size="14" lengthAdjust="spacing" textLength="128" x="13" y="121.1826">-batchIdFromOPC</text><text fill="#FFFFFF" font-family="sans-serif" font-size="14" lengthAdjust="spacing" textLength="150" x="13" y="137.4795">-PackMLCmdOptions</text><text fill="#FFFFFF" font-family="sans-serif" font-size="14" lengthAdjust="spacing" textLength="157" x="13" y="153.7764">-PackMLStateOptions</text><text fill="#FFFFFF" font-family="sans-serif" font-size="14" lengthAdjust="spacing" textLength="70" x="13" y="170.0732">-variables</text><text fill="#FFFFFF" font-family="sans-serif" font-size="14" lengthAdjust="spacing" textLength="70" x="13" y="186.3701">-products</text><text fill="#FFFFFF" font-family="sans-serif" font-size="14" lengthAdjust="spacing" textLength="94" x="13" y="202.667">-speedLimits</text><text fill="#FFFFFF" font-family="sans-serif" font-size="14" lengthAdjust="spacing" textLength="118" x="13" y="218.9639">-opcEndpointUrl</text><line style="stroke:#E7E7E7;stroke-width:0.5;" x1="8" x2="374" y1="226.2656" y2="226.2656"/><text fill="#FFFFFF" font-family="sans-serif" font-size="14" lengthAdjust="spacing" textLength="184" x="13" y="243.2607">-findVariable(beer_name)</text><text fill="#FFFFFF" font-family="sans-serif" font-size="14" lengthAdjust="spacing" textLength="165" x="13" y="259.5576">-PackMLStateHandler()</text><text fill="#FFFFFF" font-family="sans-serif" font-size="14" lengthAdjust="spacing" textLength="101" x="13" y="275.8545">+getBatchId()</text><text fill="#FFFFFF" font-family="sans-serif" font-size="14" lengthAdjust="spacing" textLength="80" x="13" y="292.1514">+connect()</text><text fill="#FFFFFF" font-family="sans-serif" font-size="14" lengthAdjust="spacing" textLength="157" x="13" y="308.4482">+read(variable_name)</text><text fill="#FFFFFF" font-family="sans-serif" font-size="14" lengthAdjust="spacing" textLength="281" x="13" y="324.7451">+write(variable_name, value, datatype)</text><text fill="#FFFFFF" font-family="sans-serif" font-size="14" lengthAdjust="spacing" textLength="80" x="13" y="341.042">+connect()</text><text fill="#FFFFFF" font-family="sans-serif" font-size="14" lengthAdjust="spacing" textLength="115" x="13" y="357.3389">+maintenance()</text><text fill="#FFFFFF" font-family="sans-serif" font-size="14" lengthAdjust="spacing" textLength="356" x="13" y="373.6357">+brew(beer_type, beer_amount, machine_speed)</text><text fill="#FFFFFF" font-family="sans-serif" font-size="14" lengthAdjust="spacing" textLength="100" x="13" y="389.9326">+disconnect()</text><text fill="#FFFFFF" font-family="sans-serif" font-size="14" lengthAdjust="spacing" textLength="261" x="13" y="406.2295">+subscribe(variable_name, callback)</text></g><!--class db.js--><g id="elem_db.js"><rect codeLine="30" fill="#313139" height="113.1875" id="db.js" rx="2.5" ry="2.5" style="stroke:#E7E7E7;stroke-width:0.5;" width="165" x="410.5" y="154"/><ellipse cx="471.25" cy="170" fill="#2E5233" rx="11" ry="11" style="stroke:#E7E7E7;stroke-width:1.0;"/><path d="M473.5938,165.6719 C472.6563,165.2344 472.0625,165.0938 471.1875,165.0938 C468.5625,165.0938 466.5625,167.1719 466.5625,169.8906 L466.5625,171.0156 C466.5625,173.5938 468.6719,175.4844 471.5625,175.4844 C472.7813,175.4844 473.9375,175.1875 474.6875,174.6406 C475.2656,174.2344 475.5938,173.7813 475.5938,173.3906 C475.5938,172.9375 475.2031,172.5469 474.7344,172.5469 C474.5156,172.5469 474.3125,172.625 474.125,172.8125 C473.6719,173.2969 473.6719,173.2969 473.4844,173.3906 C473.0625,173.6563 472.375,173.7813 471.6094,173.7813 C469.5625,173.7813 468.2656,172.6875 468.2656,170.9844 L468.2656,169.8906 C468.2656,168.1094 469.5156,166.7969 471.25,166.7969 C471.8281,166.7969 472.4375,166.9531 472.9063,167.2031 C473.3906,167.4844 473.5625,167.7031 473.6563,168.1094 C473.7188,168.5156 473.75,168.6406 473.8906,168.7656 C474.0313,168.9063 474.2656,169.0156 474.4844,169.0156 C474.75,169.0156 475.0156,168.875 475.1875,168.6563 C475.2969,168.5 475.3281,168.3125 475.3281,167.8906 L475.3281,166.4688 C475.3281,166.0313 475.3125,165.9063 475.2188,165.75 C475.0625,165.4844 474.7813,165.3438 474.4844,165.3438 C474.1875,165.3438 473.9844,165.4375 473.7656,165.75 L473.5938,165.6719 Z " fill="#FFFFFF"/><text fill="#FFFFFF" font-family="sans-serif" font-size="14" lengthAdjust="spacing" textLength="35" x="491.75" y="174.8467">db.js</text><line style="stroke:#E7E7E7;stroke-width:0.5;" x1="411.5" x2="574.5" y1="186" y2="186"/><text fill="#FFFFFF" font-family="sans-serif" font-size="14" lengthAdjust="spacing" textLength="38" x="416.5" y="202.9951">-pool</text><line style="stroke:#E7E7E7;stroke-width:0.5;" x1="411.5" x2="574.5" y1="210.2969" y2="210.2969"/><text fill="#FFFFFF" font-family="sans-serif" font-size="14" lengthAdjust="spacing" textLength="153" x="416.5" y="227.292">+query(text, params)</text><text fill="#FFFFFF" font-family="sans-serif" font-size="14" lengthAdjust="spacing" textLength="135" x="416.5" y="243.5889">+connect(options)</text><text fill="#FFFFFF" font-family="sans-serif" font-size="14" lengthAdjust="spacing" textLength="100" x="416.5" y="259.8857">+disconnect()</text></g><!--class index.js--><g id="elem_index.js"><rect codeLine="37" fill="#313139" height="145.7813" id="index.js" rx="2.5" ry="2.5" style="stroke:#E7E7E7;stroke-width:0.5;" width="218" x="611" y="137.5"/><ellipse cx="688.25" cy="153.5" fill="#2E5233" rx="11" ry="11" style="stroke:#E7E7E7;stroke-width:1.0;"/><path d="M690.5938,149.1719 C689.6563,148.7344 689.0625,148.5938 688.1875,148.5938 C685.5625,148.5938 683.5625,150.6719 683.5625,153.3906 L683.5625,154.5156 C683.5625,157.0938 685.6719,158.9844 688.5625,158.9844 C689.7813,158.9844 690.9375,158.6875 691.6875,158.1406 C692.2656,157.7344 692.5938,157.2813 692.5938,156.8906 C692.5938,156.4375 692.2031,156.0469 691.7344,156.0469 C691.5156,156.0469 691.3125,156.125 691.125,156.3125 C690.6719,156.7969 690.6719,156.7969 690.4844,156.8906 C690.0625,157.1563 689.375,157.2813 688.6094,157.2813 C686.5625,157.2813 685.2656,156.1875 685.2656,154.4844 L685.2656,153.3906 C685.2656,151.6094 686.5156,150.2969 688.25,150.2969 C688.8281,150.2969 689.4375,150.4531 689.9063,150.7031 C690.3906,150.9844 690.5625,151.2031 690.6563,151.6094 C690.7188,152.0156 690.75,152.1406 690.8906,152.2656 C691.0313,152.4063 691.2656,152.5156 691.4844,152.5156 C691.75,152.5156 692.0156,152.375 692.1875,152.1563 C692.2969,152 692.3281,151.8125 692.3281,151.3906 L692.3281,149.9688 C692.3281,149.5313 692.3125,149.4063 692.2188,149.25 C692.0625,148.9844 691.7813,148.8438 691.4844,148.8438 C691.1875,148.8438 690.9844,148.9375 690.7656,149.25 L690.5938,149.1719 Z " fill="#FFFFFF"/><text fill="#FFFFFF" font-family="sans-serif" font-size="14" lengthAdjust="spacing" textLength="55" x="708.75" y="158.3467">index.js</text><line style="stroke:#E7E7E7;stroke-width:0.5;" x1="612" x2="828" y1="169.5" y2="169.5"/><text fill="#FFFFFF" font-family="sans-serif" font-size="14" lengthAdjust="spacing" textLength="47" x="617" y="186.4951">-beers</text><text fill="#FFFFFF" font-family="sans-serif" font-size="14" lengthAdjust="spacing" textLength="39" x="617" y="202.792">+app</text><line style="stroke:#E7E7E7;stroke-width:0.5;" x1="612" x2="828" y1="210.0938" y2="210.0938"/><text fill="#FFFFFF" font-family="sans-serif" font-size="14" lengthAdjust="spacing" textLength="206" x="617" y="227.0889">+POST ('/api/pass-to-queue')</text><text fill="#FFFFFF" font-family="sans-serif" font-size="14" lengthAdjust="spacing" textLength="132" x="617" y="243.3857">+GET ('/api/state')</text><text fill="#FFFFFF" font-family="sans-serif" font-size="14" lengthAdjust="spacing" textLength="136" x="617" y="259.6826">+GET ('/api/batch')</text><text fill="#FFFFFF" font-family="sans-serif" font-size="14" lengthAdjust="spacing" textLength="163" x="617" y="275.9795">+GET ('/api/inventory')</text></g><!--class main.jsx--><g id="elem_main.jsx"><rect codeLine="46" fill="#313139" height="64.2969" id="main.jsx" rx="2.5" ry="2.5" style="stroke:#E7E7E7;stroke-width:0.5;" width="91" x="145.5" y="474"/><ellipse cx="160.5" cy="490" fill="#2E5233" rx="11" ry="11" style="stroke:#E7E7E7;stroke-width:1.0;"/><path d="M162.8438,485.6719 C161.9063,485.2344 161.3125,485.0938 160.4375,485.0938 C157.8125,485.0938 155.8125,487.1719 155.8125,489.8906 L155.8125,491.0156 C155.8125,493.5938 157.9219,495.4844 160.8125,495.4844 C162.0313,495.4844 163.1875,495.1875 163.9375,494.6406 C164.5156,494.2344 164.8438,493.7813 164.8438,493.3906 C164.8438,492.9375 164.4531,492.5469 163.9844,492.5469 C163.7656,492.5469 163.5625,492.625 163.375,492.8125 C162.9219,493.2969 162.9219,493.2969 162.7344,493.3906 C162.3125,493.6563 161.625,493.7813 160.8594,493.7813 C158.8125,493.7813 157.5156,492.6875 157.5156,490.9844 L157.5156,489.8906 C157.5156,488.1094 158.7656,486.7969 160.5,486.7969 C161.0781,486.7969 161.6875,486.9531 162.1563,487.2031 C162.6406,487.4844 162.8125,487.7031 162.9063,488.1094 C162.9688,488.5156 163,488.6406 163.1406,488.7656 C163.2813,488.9063 163.5156,489.0156 163.7344,489.0156 C164,489.0156 164.2656,488.875 164.4375,488.6563 C164.5469,488.5 164.5781,488.3125 164.5781,487.8906 L164.5781,486.4688 C164.5781,486.0313 164.5625,485.9063 164.4688,485.75 C164.3125,485.4844 164.0313,485.3438 163.7344,485.3438 C163.4375,485.3438 163.2344,485.4375 163.0156,485.75 L162.8438,485.6719 Z " fill="#FFFFFF"/><text fill="#FFFFFF" font-family="sans-serif" font-size="14" lengthAdjust="spacing" textLength="59" x="174.5" y="494.8467">main.jsx</text><line style="stroke:#E7E7E7;stroke-width:0.5;" x1="146.5" x2="235.5" y1="506" y2="506"/><text fill="#FFFFFF" font-family="sans-serif" font-size="14" lengthAdjust="spacing" textLength="51" x="151.5" y="522.9951">-router</text><line style="stroke:#E7E7E7;stroke-width:0.5;" x1="146.5" x2="235.5" y1="530.2969" y2="530.2969"/></g><!--class App.jsx--><g id="elem_App.jsx"><rect codeLine="50" fill="#313139" height="64.2969" id="App.jsx" rx="2.5" ry="2.5" style="stroke:#E7E7E7;stroke-width:0.5;" width="86" x="272" y="474"/><ellipse cx="287" cy="490" fill="#2E5233" rx="11" ry="11" style="stroke:#E7E7E7;stroke-width:1.0;"/><path d="M289.3438,485.6719 C288.4063,485.2344 287.8125,485.0938 286.9375,485.0938 C284.3125,485.0938 282.3125,487.1719 282.3125,489.8906 L282.3125,491.0156 C282.3125,493.5938 284.4219,495.4844 287.3125,495.4844 C288.5313,495.4844 289.6875,495.1875 290.4375,494.6406 C291.0156,494.2344 291.3438,493.7813 291.3438,493.3906 C291.3438,492.9375 290.9531,492.5469 290.4844,492.5469 C290.2656,492.5469 290.0625,492.625 289.875,492.8125 C289.4219,493.2969 289.4219,493.2969 289.2344,493.3906 C288.8125,493.6563 288.125,493.7813 287.3594,493.7813 C285.3125,493.7813 284.0156,492.6875 284.0156,490.9844 L284.0156,489.8906 C284.0156,488.1094 285.2656,486.7969 287,486.7969 C287.5781,486.7969 288.1875,486.9531 288.6563,487.2031 C289.1406,487.4844 289.3125,487.7031 289.4063,488.1094 C289.4688,488.5156 289.5,488.6406 289.6406,488.7656 C289.7813,488.9063 290.0156,489.0156 290.2344,489.0156 C290.5,489.0156 290.7656,488.875 290.9375,488.6563 C291.0469,488.5 291.0781,488.3125 291.0781,487.8906 L291.0781,486.4688 C291.0781,486.0313 291.0625,485.9063 290.9688,485.75 C290.8125,485.4844 290.5313,485.3438 290.2344,485.3438 C289.9375,485.3438 289.7344,485.4375 289.5156,485.75 L289.3438,485.6719 Z " fill="#FFFFFF"/><text fill="#FFFFFF" font-family="sans-serif" font-size="14" lengthAdjust="spacing" textLength="54" x="301" y="494.8467">App.jsx</text><line style="stroke:#E7E7E7;stroke-width:0.5;" x1="273" x2="357" y1="506" y2="506"/><line style="stroke:#E7E7E7;stroke-width:0.5;" x1="273" x2="357" y1="514" y2="514"/><text fill="#FFFFFF" font-family="sans-serif" font-size="14" lengthAdjust="spacing" textLength="51" x="278" y="530.9951">+App()</text></g><!--class Temp.jsx--><g id="elem_Temp.jsx"><rect codeLine="54" fill="#313139" height="64.2969" id="Temp.jsx" rx="2.5" ry="2.5" style="stroke:#E7E7E7;stroke-width:0.5;" width="98" x="393" y="474"/><ellipse cx="408" cy="490" fill="#2E5233" rx="11" ry="11" style="stroke:#E7E7E7;stroke-width:1.0;"/><path d="M410.3438,485.6719 C409.4063,485.2344 408.8125,485.0938 407.9375,485.0938 C405.3125,485.0938 403.3125,487.1719 403.3125,489.8906 L403.3125,491.0156 C403.3125,493.5938 405.4219,495.4844 408.3125,495.4844 C409.5313,495.4844 410.6875,495.1875 411.4375,494.6406 C412.0156,494.2344 412.3438,493.7813 412.3438,493.3906 C412.3438,492.9375 411.9531,492.5469 411.4844,492.5469 C411.2656,492.5469 411.0625,492.625 410.875,492.8125 C410.4219,493.2969 410.4219,493.2969 410.2344,493.3906 C409.8125,493.6563 409.125,493.7813 408.3594,493.7813 C406.3125,493.7813 405.0156,492.6875 405.0156,490.9844 L405.0156,489.8906 C405.0156,488.1094 406.2656,486.7969 408,486.7969 C408.5781,486.7969 409.1875,486.9531 409.6563,487.2031 C410.1406,487.4844 410.3125,487.7031 410.4063,488.1094 C410.4688,488.5156 410.5,488.6406 410.6406,488.7656 C410.7813,488.9063 411.0156,489.0156 411.2344,489.0156 C411.5,489.0156 411.7656,488.875 411.9375,488.6563 C412.0469,488.5 412.0781,488.3125 412.0781,487.8906 L412.0781,486.4688 C412.0781,486.0313 412.0625,485.9063 411.9688,485.75 C411.8125,485.4844 411.5313,485.3438 411.2344,485.3438 C410.9375,485.3438 410.7344,485.4375 410.5156,485.75 L410.3438,485.6719 Z " fill="#FFFFFF"/><text fill="#FFFFFF" font-family="sans-serif" font-size="14" lengthAdjust="spacing" textLength="66" x="422" y="494.8467">Temp.jsx</text><line style="stroke:#E7E7E7;stroke-width:0.5;" x1="394" x2="490" y1="506" y2="506"/><line style="stroke:#E7E7E7;stroke-width:0.5;" x1="394" x2="490" y1="514" y2="514"/><text fill="#FFFFFF" font-family="sans-serif" font-size="14" lengthAdjust="spacing" textLength="63" x="399" y="530.9951">+Temp()</text></g><!--SRC=[PLBRJYCn37sVhyXR1xLT-0KM0Ol4gfKAl5PEOY1BnWc91rhG_llcqijqvodsEIVsYPtuPiX3W4ue2p5UCWSZUyOxvMXblb1SD4r45X6pYbqGv0YRfgZ5OdcrLjOWyOy_KNmtOfw4CHf7EQnC0NiPLJ2UTum4LgztUX3U1DUbQXbPWdhxVN_LwKNHnoEsOc0Se1yG34YB9V71wLvnYQD7rFUcCpLzDgIVTjfM8eOrGOTdcN9UNPFspX0_1ljVgrz0sc9eat8gNf1_LgyrJmCYL5oJWA3RlPrzzQdu38Rn59ybrxPFXuRKOkjnNAo3v0O9I645PC3FwZjVc8aIGkTwubbIgrT3k2vlBd9juacztVJbo8a2QsLwxbdpTxzHBG-RzCxPVFsznx1j6JUfMVagySIog_iOTpxKJDF7pQ5iDX-p6BpFntAnUX3jv1oyEVT9FcStJorxd9IIjzS7DkQTZD3oWKQeeO_qzrpOJWP6yc2JZqqr4bpwv-78Ndg_9wSv6JxX0Ri1cRFC_WC0]--></g></svg>